<svg xmlns="http://www.w3.org/2000/svg" xmlns:xlink="http://www.w3.org/1999/xlink" width="1024" height="1024" viewBox="0 0 1024 1024">
  <defs>
    <clipPath id="clip-passed_logo_1024">
      <rect width="1024" height="1024"/>
    </clipPath>
  </defs>
  <g id="passed_logo_1024" clip-path="url(#clip-passed_logo_1024)">
    <g id="Group_2" data-name="Group 2" transform="translate(-115.98 -101.433)">
      <path id="Rectangle_1" data-name="Rectangle 1" d="M0,0H986.24a0,0,0,0,1,0,0V636.332a72,72,0,0,1-72,72H72a72,72,0,0,1-72-72V0A0,0,0,0,1,0,0Z" transform="translate(134.93 339.434)" fill="#0c2b39"/>
      <path id="Rectangle_2" data-name="Rectangle 2" d="M72,0H914.244a72,72,0,0,1,72,72v89.686a0,0,0,0,1,0,0H0a0,0,0,0,1,0,0V72A72,72,0,0,1,72,0Z" transform="translate(134.93 180.368)" fill="#ec4420"/>
      <line id="Line_1" data-name="Line 1" x2="444.641" transform="translate(580.105 266.094)" fill="none" stroke="#0c2b39" stroke-linecap="round" stroke-miterlimit="10" stroke-width="18"/>
      <circle id="Ellipse_1" data-name="Ellipse 1" cx="18.079" cy="18.079" r="18.079" transform="translate(289.78 248.015)" fill="#0c2b39"/>
      <circle id="Ellipse_2" data-name="Ellipse 2" cx="18.079" cy="18.079" r="18.079" transform="translate(218.069 248.015)" fill="#0c2b39"/>
      <g id="Group_1" data-name="Group 1" transform="translate(232.969 450.413)">
        <path id="Path_1" data-name="Path 1" d="M313.007,485.938q4.341-4.139,4.342-11.688,0-8.278-4.463-13.229t-12.175-5.034H281.719v34.09h18.667Q308.664,490.078,313.007,485.938Z" transform="translate(-187.793 -365.586)" fill="#ec4420"/>
        <path id="Path_2" data-name="Path 2" d="M444.283,631.5h-9.606v74.488h9.933q12.292,0,18.885-8.751t6.6-26.009v-5.129q0-17.176-6.6-25.887T444.283,631.5Z" transform="translate(-140.717 -311.57)" fill="#ec4420"/>
        <path id="Path_3" data-name="Path 3" d="M442.667,464.491l-12.662,40.988h25.4Z" transform="translate(-142.155 -362.969)" fill="#ec4420"/>
        <path id="Path_4" data-name="Path 4" d="M939.811,386.861H270.143A60.246,60.246,0,0,0,209.9,447.107V812.986a60.246,60.246,0,0,0,60.246,60.246H939.811a60.246,60.246,0,0,0,60.246-60.246V447.107A60.246,60.246,0,0,0,939.811,386.861ZM712.978,532.294q-4.425-3.49-15.543-7.224a148.55,148.55,0,0,1-18.181-7.224q-22.971-11.28-22.97-31a27.816,27.816,0,0,1,5.721-17.329q5.724-7.505,16.193-11.687a63.026,63.026,0,0,1,23.537-4.18,55.134,55.134,0,0,1,22.849,4.546,36.178,36.178,0,0,1,15.7,12.946,33.807,33.807,0,0,1,5.6,19.2H717.483q0-7.223-4.423-11.2t-11.973-3.977q-7.631,0-12.052,3.369a10.33,10.33,0,0,0-4.424,8.562q0,4.547,4.87,8.239t17.125,7.629a104.987,104.987,0,0,1,20.129,8.481q19.153,11.04,19.155,30.437,0,15.5-11.687,24.349t-32.06,8.847a63.591,63.591,0,0,1-26.014-5.154Q664.483,564.76,658.6,555.79a36.791,36.791,0,0,1-5.884-20.656h28.569q0,9.5,4.911,14t15.95,4.5q7.06,0,11.159-3.043a10.047,10.047,0,0,0,4.1-8.563A11.706,11.706,0,0,0,712.978,532.294ZM275.334,455.268H322.49a54.931,54.931,0,0,1,23.983,4.992,37.642,37.642,0,0,1,16.154,14.2,38.808,38.808,0,0,1,5.721,20.9q0,17.288-12.377,27.636T322,533.348H303.823v40.1h-28.49ZM391.177,803.255H361.544l-15.874-67.568-15.549,67.568h-29.55L275.334,684.724h28.411l13.6,74.326,16.282-74.326h24.259l16.526,74.326L388,684.724h28.33Zm105.84-347.988H523.8l43.666,118.176h-30.6l-6.9-22.076H490.93l-6.817,22.076H453.675Zm71.4,291.246a61.066,61.066,0,0,1-6.879,29.184,50.294,50.294,0,0,1-19.375,20.189,54.932,54.932,0,0,1-27.883,7.368H475.282V684.724h38.18a56.172,56.172,0,0,1,28.249,7.123,50.086,50.086,0,0,1,19.579,20.107,60.738,60.738,0,0,1,7.123,29.1Zm190.193,17.151-16.244,26.54-30.429-19.9v36.148H682.19V770.3L652.448,787l-15.328-26.54,30.428-18.075-30.428-18.76,17.388-27.455,27.683,18.075V681.531h29.742v32.716l30.429-18.075,16.244,27.455-32.259,18.76Zm176.015,0-16.244,26.54-30.429-19.9v36.148H858.205V770.3L828.463,787l-15.33-26.54,30.429-18.075-30.429-18.76,17.388-27.455,27.684,18.075V681.531h29.743v32.716l30.429-18.075,16.244,27.455-32.26,18.76ZM878.212,495.323q4.869,3.694,17.125,7.629a104.986,104.986,0,0,1,20.129,8.481q19.154,11.04,19.155,30.437,0,15.5-11.687,24.349t-32.06,8.847a63.591,63.591,0,0,1-26.014-5.154q-11.648-5.153-17.532-14.123a36.791,36.791,0,0,1-5.884-20.656h28.569q0,9.5,4.911,14t15.95,4.5q7.06,0,11.159-3.043a10.047,10.047,0,0,0,4.1-8.563,11.7,11.7,0,0,0-4.425-9.739q-4.424-3.49-15.542-7.224a148.545,148.545,0,0,1-18.181-7.224q-22.971-11.28-22.97-31a27.816,27.816,0,0,1,5.721-17.329q5.724-7.505,16.193-11.687a63.026,63.026,0,0,1,23.537-4.18,55.134,55.134,0,0,1,22.849,4.546,36.174,36.174,0,0,1,15.7,12.946,33.808,33.808,0,0,1,5.6,19.2H906.214q0-7.223-4.423-11.2t-11.973-3.977q-7.631,0-12.052,3.369a10.327,10.327,0,0,0-4.424,8.562Q873.341,491.631,878.212,495.323Z" transform="translate(-209.897 -386.861)" fill="#ec4420"/>
      </g>
    </g>
  </g>
</svg>
